<svg width="50" height="50" viewBox="0 0 50 50" fill="none" xmlns="http://www.w3.org/2000/svg">
<g clip-path="url(#clip0_75_32)">
<path d="M38.889 41.6668H8.33344V11.1113H26.6946L29.4723 8.3335H8.33344C7.59673 8.3335 6.89019 8.62615 6.36926 9.14709C5.84832 9.66802 5.55566 10.3746 5.55566 11.1113V41.6668C5.55566 42.4035 5.84832 43.1101 6.36926 43.631C6.89019 44.1519 7.59673 44.4446 8.33344 44.4446H38.889C39.6257 44.4446 40.3322 44.1519 40.8532 43.631C41.3741 43.1101 41.6668 42.4035 41.6668 41.6668V20.8335L38.889 23.6113V41.6668Z" fill="#F8F8F8"/>
<path d="M46.5694 8.1111L41.8889 3.43055C41.6811 3.22226 41.4344 3.057 41.1627 2.94424C40.891 2.83148 40.5997 2.77344 40.3055 2.77344C40.0114 2.77344 39.7201 2.83148 39.4484 2.94424C39.1767 3.057 38.9299 3.22226 38.7222 3.43055L19.6805 22.5833L18.1389 29.2639C18.0732 29.5877 18.0801 29.9221 18.1591 30.2429C18.2381 30.5638 18.3872 30.8631 18.5957 31.1194C18.8042 31.3758 19.0669 31.5827 19.365 31.7253C19.663 31.868 19.989 31.9428 20.3194 31.9444C20.4902 31.9632 20.6625 31.9632 20.8333 31.9444L27.5694 30.4583L46.5694 11.2778C46.7777 11.07 46.943 10.8233 47.0557 10.5516C47.1685 10.2799 47.2265 9.9886 47.2265 9.69443C47.2265 9.40027 47.1685 9.10899 47.0557 8.8373C46.943 8.5656 46.7777 8.31882 46.5694 8.1111ZM26.125 27.8889L21.0416 29.0139L22.2222 23.9722L36.5555 9.54166L40.4722 13.4583L26.125 27.8889ZM42.0416 11.8889L38.125 7.97221L40.2777 5.77777L44.2222 9.72221L42.0416 11.8889Z" fill="#F8F8F8"/>
</g>
<defs>
<clipPath id="clip0_75_32">
<rect width="50" height="50" fill="white"/>
</clipPath>
</defs>
</svg>
