<svg width="50" height="50" viewBox="0 0 50 50" fill="none" xmlns="http://www.w3.org/2000/svg">
<path d="M24.9998 43.6711C20.8151 42.428 17.338 39.8926 14.5686 36.0648C11.8005 32.2356 10.4165 27.9225 10.4165 23.1252V11.8586L24.9998 6.41064L39.5832 11.8586V23.1252C39.5832 27.9225 38.1991 32.235 35.4311 36.0627C32.6616 39.8919 29.1846 42.428 24.9998 43.6711ZM24.9998 41.4586C28.3679 40.4169 31.1804 38.36 33.4373 35.2877C35.6943 32.2155 37.0137 28.7863 37.3957 25.0002H24.9998V8.63356L12.4998 13.2815V24.0231C12.4998 24.2926 12.5346 24.6183 12.604 25.0002H24.9998V41.4586Z" fill="#F8F8F8"/>
</svg>
