<svg width="120" height="120" viewBox="0 0 150 150" fill="none" xmlns="http://www.w3.org/2000/svg">
<g clip-path="url(#clip0_73_33)">
<path fill-rule="evenodd" clip-rule="evenodd" d="M76.6406 0.0182444C65.7285 -0.219234 54.8959 1.92789 44.8994 6.30971C34.9028 10.6915 25.9831 17.2025 18.763 25.3879C11.5429 33.5734 6.19635 43.2361 3.0967 53.7014C-0.0029551 64.1668 -0.781037 75.1826 0.816774 85.9798C2.41458 96.7769 6.34978 107.095 12.3476 116.214C18.3455 125.333 26.2614 133.033 35.5428 138.777C44.8242 144.52 55.2473 148.169 66.0845 149.468C76.9217 150.766 87.9118 149.684 98.2875 146.296C100.06 145.717 101.53 144.457 102.374 142.794C103.218 141.131 103.367 139.2 102.787 137.428C102.208 135.655 100.948 134.185 99.2851 133.341C97.6219 132.497 95.6915 132.348 93.9187 132.928C82.6435 136.609 70.5388 136.92 59.0893 133.823C47.6398 130.725 37.3432 124.354 29.4622 115.489C21.5813 106.625 16.4586 95.6532 14.7224 83.9198C12.9863 72.1864 14.7121 60.2014 19.6883 49.4346C24.6645 38.6678 32.6747 29.5872 42.7365 23.3066C52.7984 17.026 64.4744 13.8184 76.3328 14.0771C88.1911 14.3358 99.7161 18.0496 109.494 24.7631C119.273 31.4766 126.879 40.8978 131.381 51.8714C132.089 53.5969 133.453 54.9708 135.173 55.6908C136.025 56.0473 136.938 56.2325 137.862 56.2359C138.785 56.2392 139.7 56.0607 140.555 55.7104C141.409 55.3602 142.186 54.8451 142.841 54.1945C143.497 53.5439 144.018 52.7706 144.374 51.9188C144.731 51.067 144.916 50.1533 144.919 49.2299C144.923 48.3064 144.744 47.3914 144.394 46.537C138.853 33.0304 129.491 21.4343 117.456 13.1711C105.421 4.90782 91.236 0.336671 76.6406 0.0182444ZM82.0312 35.1557C82.0312 33.2909 81.2904 31.5025 79.9718 30.1839C78.6532 28.8653 76.8648 28.1245 75 28.1245C73.1352 28.1245 71.3468 28.8653 70.0281 30.1839C68.7095 31.5025 67.9687 33.2909 67.9687 35.1557V72.0933L48.9 91.1526C48.2092 91.7963 47.6551 92.5726 47.2708 93.4351C46.8865 94.2976 46.6798 95.2286 46.6632 96.1727C46.6465 97.1168 46.8202 98.0546 47.1738 98.9301C47.5275 99.8056 48.0538 100.601 48.7215 101.269C49.3892 101.936 50.1845 102.463 51.06 102.816C51.9355 103.17 52.8733 103.344 53.8174 103.327C54.7615 103.31 55.6925 103.104 56.555 102.719C57.4175 102.335 58.1938 101.781 58.8375 101.09L79.9687 79.9683L82.0312 77.9058V35.1557ZM140.625 140.625C140.625 143.111 139.637 145.495 137.879 147.254C136.121 149.012 133.736 150 131.25 150C128.764 150 126.379 149.012 124.621 147.254C122.863 145.495 121.875 143.111 121.875 140.625C121.875 138.138 122.863 135.754 124.621 133.995C126.379 132.237 128.764 131.25 131.25 131.25C133.736 131.25 136.121 132.237 137.879 133.995C139.637 135.754 140.625 138.138 140.625 140.625ZM138.281 82.0308C138.281 80.166 137.54 78.3775 136.222 77.0589C134.903 75.7403 133.115 74.9995 131.25 74.9995C129.385 74.9995 127.597 75.7403 126.278 77.0589C124.96 78.3775 124.219 80.166 124.219 82.0308V114.843C124.219 116.708 124.96 118.496 126.278 119.815C127.597 121.134 129.385 121.875 131.25 121.875C133.115 121.875 134.903 121.134 136.222 119.815C137.54 118.496 138.281 116.708 138.281 114.843V82.0308Z" fill="#C0C0C0"/>
</g>
<defs>
<clipPath id="clip0_73_33">
<rect width="150" height="150" fill="white"/>
</clipPath>
</defs>
</svg>
