<svg width="50" height="50" viewBox="0 0 50 50" fill="none" xmlns="http://www.w3.org/2000/svg">
<path fill-rule="evenodd" clip-rule="evenodd" d="M25 41.6667C34.2052 41.6667 41.6667 34.2052 41.6667 25C41.6667 15.7948 34.2052 8.33333 25 8.33333C15.7948 8.33333 8.33333 15.7948 8.33333 25C8.33333 34.2052 15.7948 41.6667 25 41.6667ZM25 43.75C35.3552 43.75 43.75 35.3552 43.75 25C43.75 14.6448 35.3552 6.25 25 6.25C14.6448 6.25 6.25 14.6448 6.25 25C6.25 35.3552 14.6448 43.75 25 43.75Z" fill="#F8F8F8"/>
<path fill-rule="evenodd" clip-rule="evenodd" d="M22.1729 22.1346C22.2843 22.5492 22.325 23.0044 22.1896 23.3773C22.1632 23.4496 22.1213 23.5151 22.0666 23.5692C22.012 23.6232 21.9461 23.6646 21.8736 23.6902C21.8011 23.7157 21.7238 23.725 21.6473 23.7172C21.5709 23.7094 21.4971 23.6847 21.4312 23.645C21.1527 23.4695 20.8862 23.2757 20.6333 23.0648L20.4302 22.8982C20.2427 22.7461 20.0614 22.5982 19.8739 22.4575C19.351 22.0669 18.9364 21.8607 18.5771 21.8784C18.2 21.8971 17.7437 22.1607 17.1583 22.6232C16.9927 22.7534 16.8156 22.9013 16.6323 23.0554C16.2281 23.3929 15.7906 23.7586 15.375 24.0252C15.3014 24.0726 15.2171 24.1007 15.1298 24.1069C15.0425 24.1131 14.955 24.0971 14.8755 24.0606C14.796 24.0241 14.727 23.9681 14.6748 23.8978C14.6226 23.8275 14.589 23.7453 14.5771 23.6586C14.525 23.2784 14.6041 22.8034 14.7531 22.3388C14.9231 21.8152 15.1669 21.3185 15.4771 20.8638C16.1229 19.919 17.1708 19.0284 18.5739 19.0867C19.9281 19.144 20.9323 19.9377 21.5364 20.8023C21.8406 21.2357 22.0562 21.7013 22.1729 22.1346ZM27.7396 22.1346C27.6271 22.5492 27.5864 23.0044 27.7218 23.3773C27.7481 23.4497 27.7901 23.5154 27.8448 23.5696C27.8996 23.6238 27.9656 23.6651 28.0382 23.6907C28.1109 23.7163 28.1883 23.7255 28.2649 23.7176C28.3415 23.7097 28.4153 23.6849 28.4812 23.645C28.7541 23.4804 29.0239 23.27 29.2781 23.0648L29.4823 22.8982C29.6698 22.7461 29.851 22.5982 30.0385 22.4575C30.5604 22.0669 30.976 21.8607 31.3343 21.8784C31.7125 21.8971 32.1677 22.1607 32.7541 22.6232C32.9187 22.7534 33.0958 22.9013 33.2802 23.0554C33.6833 23.3929 34.1208 23.7586 34.5375 24.0252C34.611 24.0724 34.6953 24.1003 34.7824 24.1063C34.8696 24.1124 34.9568 24.0964 35.0362 24.0599C35.1156 24.0234 35.1845 23.9675 35.2366 23.8973C35.2887 23.8272 35.3223 23.7451 35.3343 23.6586C35.3864 23.2784 35.3073 22.8034 35.1593 22.3388C34.9893 21.8152 34.7456 21.3185 34.4354 20.8638C33.7896 19.919 32.7406 19.0284 31.3375 19.0867C29.9833 19.144 28.9802 19.9377 28.375 20.8023C28.0887 21.2069 27.8738 21.6575 27.7396 22.1346ZM25 38.5419C20.7937 38.5419 17.1479 35.3669 15.3562 30.7294C15.3387 30.6847 15.3213 30.6399 15.3041 30.595C14.8396 29.3544 15.8333 28.1252 17.1593 28.1252H32.8416C34.1677 28.1252 35.1625 29.3544 34.6958 30.595C34.679 30.6399 34.6619 30.6847 34.6448 30.7294C32.8521 35.3669 29.2062 38.5419 25 38.5419ZM32.5791 30.2836C32.2666 31.0419 31.9031 31.7377 31.501 32.3669H18.4989C18.1359 31.7971 17.8179 31.1998 17.5479 30.5805V30.2836H32.5791Z" fill="#F8F8F8"/>
<path fill-rule="evenodd" clip-rule="evenodd" d="M32.5749 34.45C32.8114 34.1427 33.0374 33.8219 33.252 33.4885C33.8344 32.578 34.318 31.6079 34.6947 30.5948C35.0937 29.5354 34.426 28.4833 33.3958 28.199C33.2149 28.1494 33.0281 28.1246 32.8405 28.125H17.1593C16.9717 28.1249 16.7849 28.1501 16.6041 28.2C16.1348 28.3266 15.7288 28.6223 15.4645 29.0302C15.3163 29.2599 15.2246 29.5214 15.1969 29.7934C15.1692 30.0653 15.2063 30.3399 15.3051 30.5948C15.4104 30.8717 15.5222 31.1461 15.6405 31.4177C15.9635 32.1521 16.3343 32.8448 16.7478 33.4885C16.9624 33.8219 17.1885 34.1427 17.4249 34.449C19.377 36.9813 22.0499 38.5417 24.9999 38.5417C27.9489 38.5417 30.6228 36.9813 32.5749 34.45ZM32.5791 30.2833C32.2817 31.0082 31.921 31.7053 31.501 32.3667H18.4989C18.1358 31.7968 17.8179 31.1995 17.5478 30.5802V30.2833H32.5791Z" fill="#F8F8F8"/>
</svg>
